<svg viewBox="30 20 340 335" xmlns="http://www.w3.org/2000/svg">
  <defs>
    <linearGradient id="blueGrad1" x1="0%" y1="0%" x2="100%" y2="100%">
      <stop offset="0%" stop-color="#3b6fe0"/>
      <stop offset="100%" stop-color="#1a3a8f"/>
    </linearGradient>
    <linearGradient id="goldGrad1" x1="0%" y1="0%" x2="100%" y2="100%">
      <stop offset="0%" stop-color="#f6c445"/>
      <stop offset="100%" stop-color="#d89b1e"/>
    </linearGradient>
  </defs>

  <circle cx="200" cy="190" r="150" fill="#ffffff" stroke="#e6e6e6" stroke-width="2"/>

  <rect x="95" y="215" width="26" height="45" fill="url(#blueGrad1)" rx="3"/>
  <rect x="130" y="190" width="26" height="70" fill="url(#blueGrad1)" rx="3"/>
  <rect x="165" y="155" width="26" height="105" fill="url(#blueGrad1)" rx="3"/>
  <rect x="200" y="120" width="26" height="140" fill="url(#blueGrad1)" rx="3"/>

  <path d="M100 235 L140 195 L175 220 L235 120" stroke="#1a3a8f" stroke-width="8" fill="none" stroke-linecap="round" stroke-linejoin="round"/>
  <path d="M215 100 L240 118 L232 145 Z" fill="#1a3a8f"/>

  <circle cx="255" cy="120" r="22" fill="url(#goldGrad1)" stroke="#b9791a" stroke-width="2"/>
  <text x="255" y="128" font-family="Georgia, serif" font-size="22" font-weight="bold" fill="#7a5410" text-anchor="middle">$</text>

  <circle cx="260" cy="205" r="16" fill="url(#blueGrad1)"/>
  <path d="M260 221 C240 225, 235 260, 240 275 L280 275 C285 260, 280 225, 260 221 Z" fill="url(#blueGrad1)"/>
  <path d="M244 240 L228 265" stroke="#1a3a8f" stroke-width="7" stroke-linecap="round"/>
  <path d="M276 240 L292 220" stroke="#1a3a8f" stroke-width="7" stroke-linecap="round"/>

  <text x="200" y="335" font-family="Georgia, 'Times New Roman', serif" font-size="50" font-weight="700" fill="#1a3a8f" text-anchor="middle" letter-spacing="1">NEFC</text>
</svg>
